<?xml version="1.0" encoding="UTF-8" standalone="no"?><!DOCTYPE svg PUBLIC "-//W3C//DTD SVG 1.1//EN" "http://www.w3.org/Graphics/SVG/1.1/DTD/svg11.dtd"><svg width="100%" height="100%" viewBox="0 0 1119 185" version="1.1" xmlns="http://www.w3.org/2000/svg" xmlns:xlink="http://www.w3.org/1999/xlink" xml:space="preserve" xmlns:serif="http://www.serif.com/" style="fill-rule:evenodd;clip-rule:evenodd;stroke-linejoin:round;stroke-miterlimit:2;"><g id="Artboard1" transform="matrix(1.45651,0,0,0.180353,0,0)"><rect x="0" y="0" width="768" height="1024" style="fill:none;"/><g id="airplane.svg" transform="matrix(5.23913,0,0,42.3106,63.6009,508.732)"><g transform="matrix(1,0,0,1,-12,-12)"><path d="M20.56,3.91C21.15,4.5 21.15,5.45 20.56,6.03L16.67,9.92L18.79,19.11L17.38,20.53L13.5,13.1L9.6,17L9.96,19.47L8.89,20.53L7.13,17.35L3.94,15.58L5,14.5L7.5,14.87L11.37,11L3.94,7.09L5.36,5.68L14.55,7.8L18.44,3.91C19,3.33 20,3.33 20.56,3.91Z" style="fill:rgb(15,181,232);fill-rule:nonzero;"/></g></g><g transform="matrix(0.686572,0,0,5.54468,21.8186,13.0723)"><g transform="matrix(137.14,0,0,137.14,174.17,141.458)"><path d="M0.323,-0.606L0.235,-0.292C0.235,-0.29 0.235,-0.288 0.236,-0.286C0.238,-0.284 0.239,-0.283 0.241,-0.283L0.407,-0.283C0.409,-0.283 0.411,-0.284 0.412,-0.286C0.413,-0.288 0.414,-0.29 0.413,-0.292L0.325,-0.606C0.325,-0.607 0.325,-0.607 0.324,-0.607C0.324,-0.607 0.323,-0.607 0.323,-0.606ZM0.064,-0C0.05,-0 0.039,-0.006 0.03,-0.017C0.022,-0.028 0.021,-0.041 0.026,-0.054L0.233,-0.676C0.239,-0.692 0.249,-0.705 0.263,-0.715C0.276,-0.725 0.291,-0.73 0.308,-0.73L0.344,-0.73C0.361,-0.73 0.377,-0.725 0.391,-0.715C0.404,-0.705 0.414,-0.692 0.419,-0.676L0.626,-0.054C0.631,-0.041 0.629,-0.028 0.621,-0.017C0.613,-0.006 0.602,-0 0.588,-0L0.552,-0C0.535,-0 0.521,-0.005 0.507,-0.016C0.494,-0.026 0.485,-0.039 0.48,-0.055L0.448,-0.168C0.448,-0.173 0.444,-0.176 0.437,-0.176L0.211,-0.176C0.205,-0.176 0.201,-0.173 0.2,-0.168L0.168,-0.055C0.164,-0.038 0.155,-0.025 0.142,-0.015C0.128,-0.005 0.113,-0 0.096,-0L0.064,-0Z" style="fill:rgb(15,181,232);fill-rule:nonzero;"/></g><g transform="matrix(137.14,0,0,137.14,263.633,141.458)"><path d="M0.156,-0C0.141,-0 0.127,-0.006 0.115,-0.017C0.104,-0.028 0.099,-0.042 0.099,-0.057L0.099,-0.673C0.099,-0.688 0.104,-0.702 0.115,-0.713C0.127,-0.725 0.141,-0.73 0.156,-0.73L0.196,-0.73C0.212,-0.73 0.225,-0.725 0.236,-0.713C0.247,-0.702 0.253,-0.688 0.253,-0.673L0.253,-0.057C0.253,-0.041 0.247,-0.028 0.235,-0.017C0.224,-0.006 0.211,-0 0.196,-0L0.156,-0Z" style="fill:rgb(15,181,232);fill-rule:nonzero;"/></g><g transform="matrix(137.14,0,0,137.14,311.846,141.458)"><path d="M0.119,-0.61C0.104,-0.61 0.09,-0.616 0.079,-0.627C0.068,-0.638 0.063,-0.651 0.063,-0.667L0.063,-0.67C0.063,-0.686 0.068,-0.699 0.079,-0.71C0.091,-0.721 0.104,-0.727 0.119,-0.727L0.816,-0.727C0.832,-0.727 0.845,-0.721 0.855,-0.71C0.867,-0.699 0.872,-0.686 0.872,-0.67L0.872,-0.667C0.872,-0.623 0.866,-0.586 0.854,-0.557C0.811,-0.457 0.743,-0.375 0.652,-0.311C0.639,-0.301 0.625,-0.298 0.608,-0.301C0.592,-0.303 0.579,-0.312 0.569,-0.325L0.561,-0.338C0.552,-0.35 0.549,-0.363 0.551,-0.378C0.553,-0.393 0.561,-0.405 0.573,-0.414C0.648,-0.467 0.699,-0.53 0.727,-0.602C0.729,-0.607 0.728,-0.61 0.722,-0.61L0.119,-0.61ZM0.379,-0.53L0.399,-0.53C0.415,-0.53 0.428,-0.524 0.439,-0.513C0.451,-0.502 0.456,-0.488 0.455,-0.473C0.452,-0.335 0.434,-0.229 0.4,-0.156C0.367,-0.083 0.311,-0.024 0.23,0.021C0.216,0.029 0.201,0.031 0.186,0.026C0.17,0.022 0.158,0.013 0.149,-0.001L0.143,-0.014C0.135,-0.026 0.132,-0.039 0.136,-0.054C0.14,-0.069 0.148,-0.08 0.16,-0.088C0.217,-0.122 0.258,-0.168 0.282,-0.224C0.306,-0.28 0.32,-0.364 0.322,-0.474C0.323,-0.489 0.328,-0.503 0.339,-0.514C0.35,-0.525 0.363,-0.53 0.379,-0.53Z" style="fill:rgb(15,181,232);fill-rule:nonzero;"/></g><g transform="matrix(137.14,0,0,137.14,440.148,141.458)"><path d="M0.817,-0.622C0.833,-0.619 0.845,-0.612 0.854,-0.599C0.863,-0.586 0.866,-0.572 0.862,-0.557C0.822,-0.369 0.748,-0.23 0.641,-0.139C0.533,-0.048 0.376,0.01 0.17,0.034C0.154,0.036 0.139,0.032 0.127,0.022C0.115,0.013 0.107,0 0.104,-0.016L0.103,-0.031C0.1,-0.046 0.103,-0.06 0.112,-0.071C0.121,-0.083 0.134,-0.09 0.149,-0.092C0.328,-0.113 0.462,-0.16 0.551,-0.232C0.639,-0.305 0.701,-0.421 0.735,-0.579C0.739,-0.595 0.747,-0.607 0.76,-0.615C0.773,-0.624 0.787,-0.628 0.803,-0.625L0.817,-0.622ZM0.109,-0.399C0.094,-0.402 0.081,-0.41 0.072,-0.422C0.064,-0.435 0.061,-0.449 0.064,-0.464L0.065,-0.471C0.068,-0.486 0.076,-0.499 0.09,-0.508C0.104,-0.518 0.119,-0.521 0.135,-0.517C0.172,-0.51 0.244,-0.496 0.353,-0.475C0.368,-0.472 0.38,-0.464 0.388,-0.451C0.396,-0.438 0.399,-0.424 0.396,-0.408L0.395,-0.401C0.391,-0.386 0.383,-0.373 0.37,-0.364C0.357,-0.356 0.343,-0.353 0.328,-0.356C0.201,-0.382 0.128,-0.396 0.109,-0.399ZM0.408,-0.718C0.424,-0.715 0.436,-0.707 0.444,-0.693C0.453,-0.68 0.455,-0.666 0.452,-0.651L0.45,-0.642C0.448,-0.626 0.44,-0.614 0.427,-0.605C0.414,-0.597 0.4,-0.594 0.385,-0.598C0.302,-0.615 0.226,-0.629 0.156,-0.641C0.141,-0.643 0.128,-0.651 0.119,-0.663C0.111,-0.676 0.108,-0.69 0.11,-0.706L0.112,-0.714C0.115,-0.729 0.123,-0.742 0.136,-0.751C0.149,-0.76 0.164,-0.763 0.18,-0.761C0.246,-0.75 0.322,-0.735 0.408,-0.718Z" style="fill:rgb(15,181,232);fill-rule:nonzero;"/></g><g transform="matrix(137.14,0,0,137.14,567.378,141.458)"><path d="M0.076,-0.017L0.071,-0.027C0.064,-0.04 0.063,-0.054 0.067,-0.069C0.072,-0.084 0.081,-0.095 0.094,-0.103C0.335,-0.232 0.51,-0.398 0.619,-0.602C0.62,-0.603 0.62,-0.604 0.619,-0.606C0.618,-0.609 0.616,-0.61 0.614,-0.61L0.189,-0.61C0.174,-0.61 0.16,-0.616 0.148,-0.627C0.137,-0.638 0.132,-0.651 0.132,-0.667L0.132,-0.677C0.132,-0.692 0.137,-0.706 0.148,-0.717C0.16,-0.728 0.174,-0.733 0.189,-0.733L0.715,-0.733C0.73,-0.733 0.744,-0.728 0.755,-0.717C0.767,-0.706 0.772,-0.692 0.772,-0.677L0.772,-0.667C0.772,-0.627 0.764,-0.591 0.747,-0.558C0.705,-0.476 0.65,-0.397 0.584,-0.323C0.58,-0.319 0.58,-0.315 0.584,-0.311C0.671,-0.23 0.749,-0.158 0.817,-0.092C0.828,-0.081 0.834,-0.067 0.834,-0.052C0.834,-0.037 0.829,-0.023 0.818,-0.012L0.806,-0.001C0.795,0.009 0.781,0.015 0.766,0.015C0.75,0.015 0.737,0.009 0.726,-0.002C0.642,-0.085 0.565,-0.157 0.495,-0.22C0.491,-0.222 0.487,-0.222 0.482,-0.219C0.384,-0.129 0.275,-0.053 0.155,0.008C0.141,0.015 0.126,0.016 0.11,0.012C0.095,0.007 0.083,-0.002 0.076,-0.017Z" style="fill:rgb(15,181,232);fill-rule:nonzero;"/></g><g transform="matrix(137.14,0,0,137.14,690.456,141.458)"><path d="M0.087,-0.325L0.081,-0.331C0.07,-0.341 0.064,-0.354 0.063,-0.369C0.063,-0.385 0.067,-0.398 0.077,-0.41C0.159,-0.504 0.212,-0.613 0.238,-0.737C0.242,-0.754 0.249,-0.767 0.262,-0.776C0.274,-0.786 0.288,-0.791 0.304,-0.79L0.317,-0.79C0.333,-0.789 0.346,-0.782 0.355,-0.771C0.365,-0.759 0.369,-0.745 0.366,-0.73L0.363,-0.709C0.362,-0.703 0.364,-0.7 0.369,-0.7L0.761,-0.7C0.776,-0.7 0.79,-0.694 0.801,-0.683C0.812,-0.672 0.817,-0.658 0.817,-0.643C0.815,-0.424 0.766,-0.26 0.668,-0.151C0.57,-0.043 0.415,0.023 0.203,0.048C0.187,0.05 0.173,0.046 0.16,0.036C0.148,0.026 0.141,0.013 0.138,-0.003L0.137,-0.011C0.134,-0.026 0.137,-0.04 0.146,-0.052C0.156,-0.064 0.167,-0.071 0.182,-0.073C0.357,-0.097 0.482,-0.148 0.557,-0.229C0.561,-0.232 0.56,-0.236 0.556,-0.239C0.5,-0.268 0.427,-0.302 0.338,-0.343C0.324,-0.349 0.314,-0.36 0.309,-0.375C0.304,-0.39 0.306,-0.404 0.313,-0.417L0.322,-0.433C0.329,-0.447 0.34,-0.457 0.355,-0.462C0.37,-0.467 0.385,-0.466 0.4,-0.46C0.467,-0.429 0.542,-0.393 0.624,-0.352C0.628,-0.35 0.631,-0.352 0.634,-0.357C0.656,-0.415 0.67,-0.487 0.675,-0.572C0.675,-0.577 0.672,-0.58 0.667,-0.58L0.335,-0.58C0.329,-0.581 0.325,-0.579 0.323,-0.573C0.289,-0.484 0.237,-0.402 0.169,-0.328C0.159,-0.317 0.145,-0.311 0.129,-0.311C0.113,-0.31 0.099,-0.315 0.087,-0.325Z" style="fill:rgb(15,181,232);fill-rule:nonzero;"/></g><g transform="matrix(137.14,0,0,137.14,810.989,141.458)"><path d="M0.093,-0.606C0.078,-0.613 0.069,-0.623 0.064,-0.638C0.06,-0.653 0.062,-0.667 0.069,-0.68L0.079,-0.7C0.086,-0.715 0.097,-0.724 0.112,-0.729C0.127,-0.733 0.142,-0.732 0.157,-0.725C0.223,-0.693 0.293,-0.657 0.366,-0.617C0.379,-0.61 0.388,-0.599 0.393,-0.583C0.397,-0.567 0.396,-0.553 0.388,-0.54L0.377,-0.52C0.37,-0.507 0.358,-0.498 0.343,-0.493C0.328,-0.489 0.313,-0.491 0.3,-0.498C0.222,-0.541 0.153,-0.577 0.093,-0.606ZM0.789,-0.638C0.805,-0.634 0.817,-0.626 0.825,-0.612C0.834,-0.599 0.836,-0.585 0.833,-0.57C0.794,-0.399 0.717,-0.265 0.603,-0.168C0.488,-0.072 0.334,-0.011 0.14,0.014C0.123,0.016 0.109,0.012 0.097,0.002C0.085,-0.007 0.078,-0.02 0.075,-0.036L0.073,-0.054C0.071,-0.069 0.074,-0.083 0.083,-0.096C0.092,-0.108 0.104,-0.115 0.12,-0.117C0.284,-0.14 0.413,-0.19 0.507,-0.267C0.601,-0.344 0.667,-0.454 0.704,-0.598C0.708,-0.613 0.716,-0.625 0.729,-0.634C0.743,-0.643 0.758,-0.646 0.773,-0.642L0.789,-0.638Z" style="fill:rgb(15,181,232);fill-rule:nonzero;"/></g><g transform="matrix(137.14,0,0,137.14,934.067,141.458)"><path d="M0.115,0.053C0.1,0.053 0.086,0.047 0.075,0.036C0.064,0.025 0.059,0.012 0.059,-0.003L0.059,-0.717C0.059,-0.732 0.064,-0.746 0.075,-0.757C0.086,-0.768 0.1,-0.773 0.115,-0.773L0.142,-0.773C0.157,-0.773 0.171,-0.768 0.182,-0.757C0.193,-0.746 0.199,-0.732 0.199,-0.717L0.199,-0.501C0.199,-0.495 0.201,-0.492 0.206,-0.491C0.365,-0.453 0.526,-0.404 0.69,-0.346C0.705,-0.34 0.716,-0.331 0.723,-0.316C0.73,-0.303 0.73,-0.288 0.725,-0.273L0.719,-0.254C0.714,-0.239 0.704,-0.228 0.69,-0.222C0.677,-0.215 0.663,-0.214 0.648,-0.219C0.49,-0.274 0.343,-0.319 0.206,-0.354C0.204,-0.354 0.202,-0.354 0.201,-0.352C0.2,-0.35 0.199,-0.349 0.199,-0.347L0.199,-0.003C0.199,0.013 0.193,0.026 0.182,0.036C0.171,0.047 0.157,0.053 0.142,0.053L0.115,0.053Z" style="fill:rgb(15,181,232);fill-rule:nonzero;"/></g></g></g></svg>